# xmcd
#
# Track frame offsets:
#	150
#	18160
#	36389
#	53478
#	68198
#	83398
#	99839
#	115867
#	131450
#	153325
#	170006
#	188122
#
# Disc length: 2760 seconds
#
# Revision: 0
# Processed by: cddbd v1.5.2PL0 Copyright (c) Steve Scherf et al.
# Submitted via: audiograbber 1.83.01
#
DISCID=8a0ac60c
DTITLE=Emergency Gate - You
DYEAR=2013
DGENRE=Thrash Metal
TTITLE0=Mindfuck
TTITLE1=Force United
TTITLE2=Moshpit
TTITLE3=Feeling Inside
TTITLE4=Liar's Truth
TTITLE5=Breathless
TTITLE6=rEvolution
TTITLE7=You
TTITLE8=Lean on Words
TTITLE9=Regret
TTITLE10=Back from the Grave
TTITLE11=Say Goodbye
EXTD=
EXTT0=
EXTT1=
EXTT2=
EXTT3=
EXTT4=
EXTT5=
EXTT6=
EXTT7=
EXTT8=
EXTT9=
EXTT10=
EXTT11=
PLAYORDER=
